<svg width="540" height="540" viewBox="0 0 540 540" fill="none" xmlns="http://www.w3.org/2000/svg">
<path fill-rule="evenodd" clip-rule="evenodd" d="M270 504C399.235 504 504 399.235 504 270C504 140.765 399.235 36 270 36C140.765 36 36 140.765 36 270C36 399.235 140.765 504 270 504ZM270 540C419.117 540 540 419.117 540 270C540 120.883 419.117 0 270 0C120.883 0 0 120.883 0 270C0 419.117 120.883 540 270 540Z" fill="#EDEEF0"/>
<path d="M320.426 152.082C322.466 149.576 325.035 147.552 327.948 146.155C330.861 144.758 334.047 144.022 337.278 144C339.961 144.012 342.615 144.555 345.087 145.598C347.559 146.641 349.8 148.163 351.682 150.076C353.563 151.989 355.046 154.255 356.047 156.745C357.048 159.234 357.547 161.897 357.513 164.58V373.978C357.734 376.786 357.371 379.61 356.448 382.271C355.525 384.932 354.061 387.373 352.149 389.442C350.237 391.51 347.917 393.16 345.337 394.289C342.756 395.417 339.97 396 337.153 396C334.336 396 331.55 395.417 328.969 394.289C326.389 393.16 324.069 391.51 322.157 389.442C320.245 387.373 318.781 384.932 317.858 382.271C316.935 379.61 316.572 376.786 316.793 373.978V216.64L173.706 387.667C171.836 389.82 169.534 391.555 166.948 392.758C164.363 393.962 161.553 394.607 158.702 394.652C153.625 394.603 148.769 392.564 145.179 388.974C141.588 385.384 139.549 380.528 139.501 375.451C139.467 370.865 141.079 366.42 144.042 362.921L320.426 152.082Z" fill="#EDEEF0"/>
</svg>
